<svg width="264" height="206" viewBox="0 0 264 206" fill="none" xmlns="http://www.w3.org/2000/svg">
<g clip-path="url(#clip0_805_2168)">
<path d="M256.2 60.9H259.2V63.9H262.2V69.9H256.2V81.9H241.2V78.9H238.2V72.9H241.2V69.9H244.2V60.9H247.2V57.9H256.2V60.9ZM238.2 72.9H235.2V66.9H238.2V72.9Z" fill="#FECC50"/>
<rect width="3" height="3" transform="matrix(-1 0 0 1 253.2 62.4)" fill="#2E3440"/>
<rect width="3" height="3" transform="matrix(-1 0 0 1 247.2 69.9)" fill="#EDB833"/>
<rect width="3" height="3" transform="matrix(-1 0 0 1 244.2 69.9)" fill="#C56B12"/>
<rect width="3" height="3" transform="matrix(-1 0 0 1 250.2 57.9)" fill="#C56B12"/>
<path d="M244.2 60.9H247.2V69.9H244.2V60.9Z" fill="#C56B12"/>
<rect width="3" height="3" transform="matrix(-1 0 0 1 250.2 72.9)" fill="#EDB833"/>
<rect width="3" height="3" transform="matrix(-1 0 0 1 238.2 66.9)" fill="#EDB833"/>
<rect width="3" height="3" transform="matrix(-1 0 0 1 238.2 69.9)" fill="#EDB833"/>
<rect width="3" height="3" transform="matrix(-1 0 0 1 238.2 66.9)" fill="#C56B12"/>
<rect width="3" height="3" transform="matrix(-1 0 0 1 256.2 78.9)" fill="#EDB833"/>
<path d="M253.2 78.9V75.9H256.2V81.9H241.2V78.9H253.2Z" fill="#EDB833"/>
<path d="M238.2 72.9H241.2V78.9H238.2V72.9Z" fill="#EDB833"/>
<path d="M244.2 69.9V75.9H241.2V72.9H238.2V69.9H244.2Z" fill="#C56B12"/>
<path d="M129 84H126V87H123V93H129V105H144V102H147V96H150V90H147V93H141V84H138V81H129V84Z" fill="white"/>
<rect x="138" y="93" width="3" height="3" fill="#E8E8E8"/>
<rect x="135" y="96" width="3" height="3" fill="#E8E8E8"/>
<rect x="147" y="90" width="3" height="3" fill="#E8E8E8"/>
<rect x="147" y="93" width="3" height="3" fill="#E8E8E8"/>
<rect x="132" y="102" width="3" height="3" fill="#E8E8E8"/>
<path d="M135 102V105H144V102H135Z" fill="#E8E8E8"/>
<rect x="129" y="102" width="3" height="3" fill="#E8E8E8"/>
<rect x="129" y="99" width="3" height="3" fill="#E8E8E8"/>
<rect x="129" y="102" width="3" height="3" fill="#E8E8E8"/>
<path d="M147 96H144V102H147V96Z" fill="#E8E8E8"/>
<rect x="147" y="90" width="3" height="3" fill="#3E3E3E"/>
<path d="M129 102V105H135V102H129Z" fill="#3E3E3E"/>
<path d="M129 88.5H132V91.5H138V93H141V84H138V81H129V88.5Z" fill="#3E3E3E"/>
<path d="M144 96H147V93H141V99H144V96Z" fill="#3E3E3E"/>
<rect x="132" y="85.5" width="3" height="3" fill="#2E3440"/>
<path d="M48.6499 3.19995H45.6499V6.19995H42.6499V12.2H48.6499V24.2H63.6499V21.2H66.6499V15.2H63.6499V12.2H60.6499V3.19995H57.6499V0.199951H48.6499V3.19995ZM66.6499 15.2H69.6499V9.19995H66.6499V15.2Z" fill="#FECC50"/>
<rect x="51.6499" y="4.69995" width="3" height="3" fill="#2E3440"/>
<rect x="57.6499" y="12.2" width="3" height="3" fill="#EDB833"/>
<rect x="60.6499" y="12.2" width="3" height="3" fill="#C56B12"/>
<rect x="54.6499" y="0.199951" width="3" height="3" fill="#C56B12"/>
<path d="M60.6499 3.19995H57.6499V12.2H60.6499V3.19995Z" fill="#C56B12"/>
<rect x="54.6499" y="15.2" width="3" height="3" fill="#EDB833"/>
<rect x="66.6499" y="9.19995" width="3" height="3" fill="#EDB833"/>
<rect x="66.6499" y="12.2" width="3" height="3" fill="#EDB833"/>
<rect x="66.6499" y="9.19995" width="3" height="3" fill="#C56B12"/>
<rect x="48.6499" y="21.2" width="3" height="3" fill="#EDB833"/>
<path d="M51.6499 21.2V18.2H48.6499V24.2H63.6499V21.2H51.6499Z" fill="#EDB833"/>
<path d="M66.6499 15.2H63.6499V21.2H66.6499V15.2Z" fill="#EDB833"/>
<path d="M60.6499 12.2V18.2H63.6499V15.2H66.6499V12.2H60.6499Z" fill="#C56B12"/>
<path d="M53.9149 122V61.94C53.9149 59.124 54.0029 55.78 54.1789 51.908C54.3549 47.948 54.5309 44.516 54.7069 41.612H54.0469C52.9029 44.252 51.6709 46.892 50.3509 49.532C49.0309 52.172 47.6669 54.856 46.2589 57.584L31.0789 81.872H83.6149V96.656H12.2029V83.456L48.6349 24.188H71.9989V122H53.9149ZM131.51 123.848C124.91 123.848 119.102 121.956 114.086 118.172C109.158 114.3 105.286 108.58 102.47 101.012C99.7423 93.356 98.3783 83.896 98.3783 72.632C98.3783 61.456 99.7423 52.172 102.47 44.78C105.286 37.3 109.158 31.712 114.086 28.016C119.102 24.32 124.91 22.472 131.51 22.472C138.198 22.472 144.006 24.364 148.934 28.148C153.862 31.844 157.69 37.388 160.418 44.78C163.234 52.172 164.642 61.456 164.642 72.632C164.642 83.896 163.234 93.356 160.418 101.012C157.69 108.58 153.862 114.3 148.934 118.172C144.006 121.956 138.198 123.848 131.51 123.848ZM131.51 108.668C134.414 108.668 136.966 107.568 139.166 105.368C141.366 103.168 143.082 99.472 144.314 94.28C145.546 89 146.162 81.784 146.162 72.632C146.162 63.568 145.546 56.484 144.314 51.38C143.082 46.188 141.366 42.58 139.166 40.556C136.966 38.444 134.414 37.388 131.51 37.388C128.782 37.388 126.274 38.444 123.986 40.556C121.786 42.58 120.026 46.188 118.706 51.38C117.386 56.484 116.726 63.568 116.726 72.632C116.726 81.784 117.386 89 118.706 94.28C120.026 99.472 121.786 103.168 123.986 105.368C126.274 107.568 128.782 108.668 131.51 108.668ZM220.194 122V61.94C220.194 59.124 220.282 55.78 220.458 51.908C220.634 47.948 220.81 44.516 220.986 41.612H220.326C219.182 44.252 217.95 46.892 216.63 49.532C215.31 52.172 213.946 54.856 212.538 57.584L197.358 81.872H249.894V96.656H178.482V83.456L214.914 24.188H238.278V122H220.194Z" fill="white"/>
<path d="M19.0668 198V162.816H23.5788L36.4428 184.992L40.2348 192.24H40.4748C40.3148 190.48 40.1708 188.64 40.0428 186.72C39.9148 184.8 39.8508 182.928 39.8508 181.104V162.816H44.0748V198H39.5148L26.6988 175.776L22.9068 168.576H22.7148C22.8108 170.336 22.9228 172.144 23.0508 174C23.1788 175.824 23.2428 177.664 23.2428 179.52V198H19.0668ZM63.4503 198.624C61.3383 198.624 59.3543 198.096 57.4983 197.04C55.6423 195.952 54.1543 194.4 53.0343 192.384C51.9463 190.336 51.4023 187.872 51.4023 184.992C51.4023 182.08 51.9463 179.616 53.0343 177.6C54.1543 175.552 55.6423 173.984 57.4983 172.896C59.3543 171.808 61.3383 171.264 63.4503 171.264C65.0503 171.264 66.5703 171.568 68.0103 172.176C69.4823 172.784 70.7783 173.68 71.8983 174.864C73.0183 176.048 73.8983 177.488 74.5383 179.184C75.1783 180.88 75.4983 182.816 75.4983 184.992C75.4983 187.872 74.9383 190.336 73.8183 192.384C72.6983 194.4 71.2263 195.952 69.4023 197.04C67.5783 198.096 65.5943 198.624 63.4503 198.624ZM63.4503 194.976C64.9543 194.976 66.2663 194.56 67.3863 193.728C68.5383 192.896 69.4343 191.728 70.0743 190.224C70.7143 188.72 71.0343 186.976 71.0343 184.992C71.0343 182.976 70.7143 181.216 70.0743 179.712C69.4343 178.208 68.5383 177.04 67.3863 176.208C66.2663 175.376 64.9543 174.96 63.4503 174.96C61.9463 174.96 60.6183 175.376 59.4663 176.208C58.3463 177.04 57.4663 178.208 56.8263 179.712C56.2183 181.216 55.9143 182.976 55.9143 184.992C55.9143 186.976 56.2183 188.72 56.8263 190.224C57.4663 191.728 58.3463 192.896 59.4663 193.728C60.6183 194.56 61.9463 194.976 63.4503 194.976ZM89.5604 198.624C87.7364 198.624 86.2804 198.272 85.1924 197.568C84.1044 196.832 83.3204 195.808 82.8404 194.496C82.3924 193.184 82.1684 191.664 82.1684 189.936V175.488H78.2804V172.176L82.4084 171.936L82.8884 164.592H86.5364V171.936H93.6404V175.488H86.5364V190.08C86.5364 191.648 86.8244 192.88 87.4004 193.776C88.0084 194.64 89.0644 195.072 90.5684 195.072C91.0484 195.072 91.5604 195.008 92.1044 194.88C92.6484 194.72 93.1284 194.544 93.5444 194.352L94.4084 197.664C93.6724 197.92 92.8884 198.144 92.0564 198.336C91.2244 198.528 90.3924 198.624 89.5604 198.624ZM110.661 198V162.816H130.917V166.56H115.077V178.464H128.517V182.208H115.077V198H110.661ZM145.997 198.624C143.885 198.624 141.901 198.096 140.045 197.04C138.189 195.952 136.701 194.4 135.581 192.384C134.493 190.336 133.949 187.872 133.949 184.992C133.949 182.08 134.493 179.616 135.581 177.6C136.701 175.552 138.189 173.984 140.045 172.896C141.901 171.808 143.885 171.264 145.997 171.264C147.597 171.264 149.117 171.568 150.557 172.176C152.029 172.784 153.325 173.68 154.445 174.864C155.565 176.048 156.445 177.488 157.085 179.184C157.725 180.88 158.045 182.816 158.045 184.992C158.045 187.872 157.485 190.336 156.365 192.384C155.245 194.4 153.773 195.952 151.949 197.04C150.125 198.096 148.141 198.624 145.997 198.624ZM145.997 194.976C147.501 194.976 148.813 194.56 149.933 193.728C151.085 192.896 151.981 191.728 152.621 190.224C153.261 188.72 153.581 186.976 153.581 184.992C153.581 182.976 153.261 181.216 152.621 179.712C151.981 178.208 151.085 177.04 149.933 176.208C148.813 175.376 147.501 174.96 145.997 174.96C144.493 174.96 143.165 175.376 142.013 176.208C140.893 177.04 140.013 178.208 139.373 179.712C138.765 181.216 138.461 182.976 138.461 184.992C138.461 186.976 138.765 188.72 139.373 190.224C140.013 191.728 140.893 192.896 142.013 193.728C143.165 194.56 144.493 194.976 145.997 194.976ZM172.611 198.624C169.859 198.624 167.827 197.76 166.515 196.032C165.235 194.304 164.595 191.776 164.595 188.448V171.936H169.011V187.92C169.011 190.32 169.395 192.08 170.163 193.2C170.931 194.288 172.179 194.832 173.907 194.832C175.251 194.832 176.451 194.48 177.507 193.776C178.563 193.072 179.715 191.952 180.963 190.416V171.936H185.331V198H181.683L181.347 193.92H181.203C179.987 195.328 178.691 196.464 177.315 197.328C175.971 198.192 174.403 198.624 172.611 198.624ZM194.135 198V171.936H197.735L198.167 175.728H198.263C199.511 174.48 200.823 173.424 202.199 172.56C203.607 171.696 205.207 171.264 206.999 171.264C209.751 171.264 211.767 172.144 213.047 173.904C214.327 175.632 214.967 178.16 214.967 181.488V198H210.599V182.064C210.599 179.6 210.199 177.824 209.399 176.736C208.631 175.648 207.383 175.104 205.655 175.104C204.311 175.104 203.111 175.44 202.055 176.112C200.999 176.784 199.831 177.776 198.551 179.088V198H194.135ZM232.312 198.624C230.136 198.624 228.232 198.096 226.6 197.04C225 195.984 223.752 194.448 222.856 192.432C221.992 190.384 221.56 187.904 221.56 184.992C221.56 182.176 222.088 179.744 223.144 177.696C224.2 175.648 225.576 174.064 227.272 172.944C229 171.824 230.856 171.264 232.84 171.264C234.376 171.264 235.688 171.536 236.776 172.08C237.896 172.592 239.032 173.328 240.184 174.288L239.944 169.824V159.792H244.36V198H240.76L240.376 194.928H240.232C239.208 195.952 238.024 196.832 236.68 197.568C235.336 198.272 233.88 198.624 232.312 198.624ZM233.272 194.928C234.488 194.928 235.64 194.64 236.728 194.064C237.816 193.456 238.888 192.56 239.944 191.376V177.696C238.856 176.704 237.8 176 236.776 175.584C235.752 175.168 234.696 174.96 233.608 174.96C232.232 174.96 230.968 175.392 229.816 176.256C228.696 177.088 227.784 178.256 227.08 179.76C226.408 181.232 226.072 182.96 226.072 184.944C226.072 187.024 226.36 188.816 226.936 190.32C227.512 191.824 228.328 192.976 229.384 193.776C230.472 194.544 231.768 194.928 233.272 194.928Z" fill="white"/>
</g>
<defs>
<clipPath id="clip0_805_2168">
<rect width="264" height="206" fill="white"/>
</clipPath>
</defs>
</svg>
