<svg width="16" height="16" viewBox="0 0 16 16" fill="none" xmlns="http://www.w3.org/2000/svg">
<path d="M8 2H9V3H10V5H11V6H12V5H13V4H14V3H16V8H15V12H14V13H13V14H12V15H4V14H3V13H2V8H3V7H1V6H0V4H1V3H3V2H4V1H8V2Z" fill="white"/>
<rect x="3" y="6" width="1" height="2" fill="#E8E8E8"/>
<rect x="3" y="11" width="1" height="3" fill="#E8E8E8"/>
<path d="M15 12H14V13H13V14H12V15H8V14H7V12H8V13H11V12H12V11H13V10H14V6H15V12Z" fill="#E8E8E8"/>
<path d="M6 11V12H7V13H8V15H4V14H3V12H4V11H6Z" fill="#3E3E3E"/>
<rect x="14" y="3" width="1" height="3" fill="#3E3E3E"/>
<path d="M8 2H9V3H10V5H11V6H12V5H13V8H12V9H10V8H8V7H7V6H5V5H4V4H3V2H4V1H8V2Z" fill="#3E3E3E"/>
<rect x="4" y="1" width="4" height="1" fill="#2E3440"/>
<rect x="8" y="2" width="1" height="1" fill="#2E3440"/>
<rect x="9" y="3" width="1" height="2" fill="#2E3440"/>
<rect x="10" y="5" width="1" height="3" fill="#2E3440"/>
<rect x="3" y="2" width="1" height="1" fill="#2E3440"/>
<rect x="5" y="4" width="1" height="1" fill="#2E3440"/>
<rect x="1" y="3" width="2" height="1" fill="#2E3440"/>
<rect y="4" width="1" height="2" fill="#2E3440"/>
<rect x="1" y="6" width="2" height="1" fill="#2E3440"/>
<rect x="2" y="8" width="1" height="5" fill="#2E3440"/>
<rect x="3" y="7" width="1" height="1" fill="#2E3440"/>
<rect x="3" y="13" width="1" height="1" fill="#2E3440"/>
<rect x="4" y="14" width="8" height="1" fill="#2E3440"/>
<rect x="12" y="13" width="1" height="1" fill="#2E3440"/>
<rect x="13" y="12" width="1" height="1" fill="#2E3440"/>
<rect x="14" y="8" width="1" height="4" fill="#2E3440"/>
<rect x="15" y="3" width="1" height="5" fill="#2E3440"/>
<rect x="14" y="3" width="1" height="1" fill="#2E3440"/>
<rect x="13" y="4" width="1" height="1" fill="#2E3440"/>
<rect x="12" y="5" width="1" height="1" fill="#2E3440"/>
<rect x="11" y="6" width="1" height="1" fill="#2E3440"/>
</svg>
